<svg fill="#fff" height="25px" width="25px" xmlns="http://www.w3.org/2000/svg" xmlns:xlink="http://www.w3.org/1999/xlink" x="0px" y="0px" viewBox="0 0 355.694 355.694" style="enable-background:new 0 0 355.694 355.694;"
	 xml:space="preserve">
<g>
	<g>
		<g>
			<path d="M345.923,287.653l-55.22-55.25c-4.3-4.293-10.299-6.652-16.874-6.652c-6.924,0-13.606,2.695-18.326,7.416l-29.844,29.855
				l-8.077-4.479c-17.75-9.849-42.045-23.329-67.716-49.035c-25.772-25.737-39.268-50.099-49.137-67.912l-4.414-7.839l29.901-29.897
				c9.893-9.917,10.232-25.707,0.75-35.212L71.732,13.421c-4.305-4.29-10.289-6.659-16.855-6.659
				c-6.929,0-13.607,2.708-18.324,7.443L22.982,27.848l-1.279,2.083c-5.041,6.476-9.175,13.757-12.274,21.683
				c-2.87,7.563-4.66,14.745-5.476,21.945c-7.116,59.195,20.173,113.527,94.218,187.559c87.77,87.748,161.109,94.576,181.495,94.576
				c3.482,0,5.603-0.187,6.197-0.252c7.529-0.907,14.735-2.721,22.014-5.543c7.848-3.062,15.102-7.17,21.557-12.214l3.087-2.426
				l12.688-12.454C355.086,312.916,355.41,297.142,345.923,287.653z"/>
		</g>
	</g>
</g>
</svg>
